# xmcd CD database file
#
# Track frame offsets:
#	150
#	18992
#	33517
#	50985
#	66915
#	81767
#	95675
#	108502
#	119762
#	137175
#	147507
#	163890
#
# Disc length: 2345 seconds
#
# Revision: 2
# Processed by: cddbd v1.5.2PL0 Copyright (c) Steve Scherf et al.
# Submitted via: CDex 1.70beta2
#
DISCID=ba09270c
DTITLE=The Chapmans - Simple Man
DYEAR=2005
DGENRE=Bluegrass
TTITLE0=Fire in the Canyon
TTITLE1=Cold and Lonely
TTITLE2=Jeanie and Tommy
TTITLE3=Ode To the Simple  Man
TTITLE4=The Photograph
TTITLE5=How I love You
TTITLE6=A Love I'll Never Forget
TTITLE7=(PFI) Pickle Flavored Ice Cream
TTITLE8=Runaway Kind
TTITLE9=Uphill Climb
TTITLE10=Sometimes You Just Can't Win
TTITLE11=You'll Be a Lost Ball
EXTD=YEAR: 2005
EXTT0=
EXTT1=
EXTT2=
EXTT3=
EXTT4=
EXTT5=
EXTT6=
EXTT7=
EXTT8=
EXTT9=
EXTT10=
EXTT11=
PLAYORDER=
